<?xml version="1.0" encoding="UTF-8" standalone="no"?>
<!DOCTYPE svg PUBLIC "-//W3C//DTD SVG 1.1//EN" "http://www.w3.org/Graphics/SVG/1.1/DTD/svg11.dtd">
<svg width="100%" height="100%" viewBox="0 0 3475 378" version="1.1" xmlns="http://www.w3.org/2000/svg" xmlns:xlink="http://www.w3.org/1999/xlink" xml:space="preserve" xmlns:serif="http://www.serif.com/" style="fill-rule:evenodd;clip-rule:evenodd;stroke-linejoin:round;stroke-miterlimit:2;">
    <g transform="matrix(1,0,0,1,-9.09495e-13,-653.796)">
        <g id="Scavenger_LOGO" transform="matrix(0.990622,0,0,0.492275,9.09495e-13,653.796)">
            <rect x="0" y="0" width="3507.87" height="766.005" style="fill:none;"/>
            <clipPath id="_clip1">
                <rect x="0" y="0" width="3507.87" height="766.005"/>
            </clipPath>
            <g clip-path="url(#_clip1)">
                <g transform="matrix(1.00947,0,0,2.03138,0,0)">
                    <g transform="matrix(1.43816,0,0,1.44201,-0.143816,-1.00941)">
                        <path d="M181,68.2L144.4,69.7C142.7,61.9 139.1,55.6 133.6,50.8C128.1,46 121.7,42.5 114.4,40.2C107.1,37.9 99.6,36.8 92.1,37.1C83.5,37.4 74.9,39 66.3,42.1C57.6,45.1 50.7,50 45.6,56.6C43.2,59.8 41.5,63.4 40.5,67.6C39.5,71.8 39.2,76 39.4,80.4C40.1,89.2 43.4,95.7 49.1,100C54.8,104.3 62.1,107.2 70.9,108.8C79.7,110.4 88.6,111.7 97.7,112.6C106.5,113.6 115.5,115.1 124.8,117.2C134.1,119.3 142.9,122.3 151.4,126.2C159.8,130.1 167.2,135.4 173.4,142C179.6,148.6 184,157 186.4,167.3C187.6,173.4 188.3,179 188.3,184.2C188.3,196.7 185.5,207.7 180,217.4C174.5,227 167.2,235.2 158,241.9C148.8,248.6 138.6,253.7 127.2,257.1C115.8,260.5 104.4,262.2 92.9,262.2C81.4,262.2 73,260.7 62.6,257.8C52.2,254.9 42.6,250.5 33.7,244.8C24.8,239.1 17.3,231.8 11.3,223.2C5.3,214.5 1.7,204.4 0.5,192.9L0.1,185.9L37.5,185.2L37.9,190.7L37.9,189.2C38.9,197 42.2,203.7 48,209.2C53.7,214.7 60.8,218.8 69.1,221.5C77.4,224.2 85.5,225.5 93.3,225.5C101.1,225.5 111.6,223.9 120.4,220.5C129.2,217.2 136.5,212.4 142.2,206.2C147.9,200 150.8,192.4 150.8,183.6C150.8,174.8 150.4,178 149.7,174.8C148.2,168.2 144.6,163.3 138.9,159.9C133.2,156.6 126.3,154.2 118.2,152.8C110.1,151.3 101.8,150.2 93.3,149.5C83.3,148.5 73.1,147 62.9,144.9C52.6,142.8 43.1,139.5 34.3,134.8C25.5,130.2 18.2,123.8 12.5,115.6C6.8,107.4 3.4,96.6 2.4,83.2L2.4,83.6C1.7,75 2.4,66.5 4.8,58.1C7.1,49.7 11,41.9 16.3,34.8C24.8,23.6 36.2,15.1 50.4,9.3C64.4,3.6 78.9,0.7 93.8,0.7C108.7,0.7 119.9,3.1 132.4,7.9C145,12.7 155.7,20 164.5,29.9C173.3,39.8 178.8,52.5 181,68.2Z" style="fill:rgb(153,56,9);fill-rule:nonzero;"/>
                    </g>
                    <g transform="matrix(1.43816,0,0,1.45368,-0.143816,-3.92494)">
                        <path d="M202.7,132.7C202.7,114.6 206.1,97.7 212.8,82C219.5,66.2 228.4,52.5 239.4,40.8C250.6,29.3 263.9,20.1 279.2,13.1C294.5,6.1 310.8,2.7 328.1,2.7C345.4,2.7 365.6,6.5 381.8,14.2C398,21.9 411.8,32.8 423.2,47C434.6,61.2 442.7,77.9 447.6,97.2L410.9,97.2C404.1,77.9 393.2,63.4 378.5,53.8C363.7,44.1 346.9,39.3 328.1,39.3C309.3,39.3 304.3,41.7 293.5,46.6C282.6,51.5 273.2,58.2 265.1,66.8C257,75.1 250.6,84.9 245.9,96.1C241.1,107.3 238.8,119.6 238.8,132.7C238.8,145.8 241.2,157.3 245.9,168.5C250.7,179.6 257.1,189.5 265.1,198C273.2,206.3 282.6,213 293.5,218C304.4,223 315.9,225.5 328.1,225.5C347.7,225.5 365.1,220.1 380.3,209.4C395.6,198.7 406.5,183.6 413.1,164.3L449.4,164.3C444.5,183.6 436.3,200.6 424.9,215.4C413.4,230.2 399.4,241.7 382.9,249.8C366.4,258 348.1,262.1 328.1,262.1C308.1,262.1 294.5,258.7 279.2,251.9C263.9,245.1 250.7,235.8 239.4,224C228.4,212.3 219.5,198.6 212.8,182.9C206.1,167.3 202.7,150.5 202.7,132.7Z" style="fill:rgb(153,56,9);fill-rule:nonzero;"/>
                    </g>
                    <g transform="matrix(1.43816,0,0,1.45144,-0.143816,-3.19318)">
                        <path d="M562.9,61.2L530.6,151.7L594.4,151.7L562.9,61.2ZM639.5,262L608.7,186.5L516.7,186.5C511.8,198.2 506.5,211.1 500.7,225C495,238.9 490,251.3 485.9,262L446,262L549,2.2L576.1,2.2L679.1,262L639.5,262Z" style="fill:rgb(153,56,9);fill-rule:nonzero;"/>
                    </g>
                    <g transform="matrix(1.43816,0,0,1.46783,-0.143816,-7.48593)">
                        <path d="M778.8,196.8L855.8,5.1L895.4,5.1L792.4,262L765.3,262L662.2,5.1L702.5,5.1L778.7,196.8L778.8,196.8Z" style="fill:rgb(153,56,9);fill-rule:nonzero;"/>
                    </g>
                    <g transform="matrix(1.43816,0,0,1.47241,-0.143816,-8.68724)">
                        <path d="M939.7,152.5L939.7,225L1058.8,225L1058.8,262L902.3,262L902.3,5.9L1058.4,5.9L1058.4,42.9L939.7,42.9L939.7,115.1L1055.9,115.1L1055.9,152.5L939.7,152.5Z" style="fill:rgb(153,56,9);fill-rule:nonzero;"/>
                    </g>
                    <g transform="matrix(1.43816,0,0,1.46726,-0.143816,-7.48301)">
                        <path d="M1112.3,262L1075.3,262L1075.3,5.1L1103.9,5.5L1228.9,186.2L1228.9,5.5L1265.6,5.5L1265.6,262.1L1236.3,262.1L1112.4,82.9L1112.4,262.1L1112.3,262Z" style="fill:rgb(153,56,9);fill-rule:nonzero;"/>
                    </g>
                    <g transform="matrix(1.43816,0,0,1.452,-0.143816,-3.33961)">
                        <path d="M1534.3,95.7L1494.5,95.7C1491.1,81.8 1484.9,70.7 1476,62.5C1467.1,54.3 1456.9,48.4 1445.6,44.7C1434.2,41 1423.1,39.2 1412.1,39.2C1395.5,39.2 1380.4,43.2 1366.8,51.3C1353.3,59.4 1342.6,70.4 1334.7,84.3C1326.9,98.2 1323,114.2 1323,132.3C1323,150.4 1326.9,166.5 1334.7,180.7C1342.5,194.9 1353.2,206.1 1366.8,214.2C1380.4,222.4 1395.5,226.5 1412.1,226.5C1428.7,226.5 1433,224.7 1443.4,221.2C1453.8,217.7 1463.3,212.1 1472,204.5C1480.7,196.9 1487.6,186.9 1492.7,174.5L1397.8,174.5L1397.8,137.5L1536,137.5C1535,148.3 1534,157.3 1533.1,164.6C1532.1,171.9 1530.8,177.7 1529.1,181.8L1529.1,181.4C1523.2,197.8 1514,212 1501.4,224.1C1488.8,236.2 1474.7,245.5 1459.1,252.1C1443.5,258.7 1427.8,262 1412.2,262C1396.6,262 1377.7,258.8 1362.4,252.5C1347,246.1 1333.6,237.2 1322.3,225.6C1310.9,214 1302.1,200.3 1295.7,184.4C1289.3,168.5 1286.2,151.2 1286.2,132.3C1286.2,113.4 1289.4,95.8 1295.9,79.9C1302.4,64 1311.4,50.3 1322.8,38.7C1334.3,27.1 1347.7,18.1 1362.9,11.8C1378.1,5.5 1394.6,2.3 1412.2,2.3C1429.8,2.3 1437,4 1449.9,7.4C1462.9,10.8 1475.1,16.2 1486.6,23.5C1498.1,30.8 1508,40.4 1516.5,52.3C1524.9,64.1 1530.8,78.6 1534.3,95.7Z" style="fill:rgb(153,56,9);fill-rule:nonzero;"/>
                    </g>
                    <g transform="matrix(1.43816,0,0,1.47241,-0.143816,-8.68724)">
                        <path d="M1592.4,152.5L1592.4,225L1711.5,225L1711.5,262L1555,262L1555,5.9L1711.1,5.9L1711.1,42.9L1592.4,42.9L1592.4,115.1L1708.6,115.1L1708.6,152.5L1592.4,152.5Z" style="fill:rgb(153,56,9);fill-rule:nonzero;"/>
                    </g>
                    <g transform="matrix(1.43816,0,0,1.47012,-0.143816,-8.08565)">
                        <path d="M1778.5,149.5L1778.5,131.9L1821.8,131.9C1832.3,131.9 1841,129.7 1847.8,125.3C1854.6,120.9 1859.8,115.3 1863.2,108.4C1866.6,101.6 1868.3,94.5 1868.3,87.1C1868.3,79.7 1866.6,72.7 1863.2,65.8C1859.8,59 1854.6,53.4 1847.8,49.1C1841,44.8 1832.3,42.7 1821.8,42.7L1765,42.7L1765,261.9L1728.3,261.9L1728.3,5.5L1821.8,5.5C1840.4,5.5 1855.8,9.5 1868.2,17.4C1880.5,25.3 1889.8,35.5 1896.1,48C1902.3,60.5 1905.5,73.5 1905.5,87.2C1905.5,100.9 1903.1,110.7 1898.2,121.8C1893.3,132.9 1885.9,142.3 1876,150C1866.1,157.7 1853.8,162.9 1839.2,165.6L1920.2,262L1872.2,262L1778.7,149.5L1778.5,149.5Z" style="fill:rgb(153,56,9);fill-rule:nonzero;"/>
                    </g>
                    <g transform="matrix(1.10771,0,0,1.11151,-946.508,-261.152)">
                        <path d="M3571.86,315.333C3571.84,315.232 3571.81,315.104 3571.79,314.99C3570.73,310.126 3565.38,288.093 3563.71,282.811C3563.7,282.772 3563.68,282.727 3563.67,282.683C3562.35,280.288 3553.31,263.835 3544.28,245.33C3543.14,242.998 3543.34,240.234 3544.81,238.092C3546.28,235.951 3548.78,234.761 3551.36,234.978C3590.31,238.237 3625.97,253.64 3650.83,265.864C3650.88,265.888 3650.93,265.912 3650.97,265.936C3650.97,265.936 3693.27,287.909 3693.27,287.91C3694.76,288.414 3696.22,288.944 3697.71,288.944L3714.66,288.944C3715.13,288.944 3715.6,288.989 3716.06,289.079C3736.48,293.096 3790.63,329.106 3792.95,330.652C3794.17,331.438 3795.39,331.819 3797.02,331.819C3819.06,331.819 3840.42,344.755 3864.16,357.264C3864.28,357.325 3864.39,357.389 3864.51,357.456C3882.35,368.137 3900.91,378.945 3921.08,382.759C3942.76,386.859 3965.28,395.038 3987.79,407.336C3990.22,408.666 3991.68,411.272 3991.53,414.041C3991.39,416.809 3989.67,419.251 3987.12,420.321C3987.12,420.321 3925.55,446.083 3912.65,451.236C3911.78,451.584 3911.07,451.852 3910.55,452.042C3901.23,456.942 3891.1,459.513 3879.25,462.011C3871.88,463.686 3802.38,494.887 3802.38,494.887C3801.58,495.247 3800.71,495.456 3799.83,495.504C3771.57,497.048 3742.58,510.349 3714.32,522.7C3699.6,529.137 3685.68,535.556 3673.42,539.583C3663.81,543.001 3653.35,543.154 3642,543.154C3632.81,543.154 3622.86,543.099 3612.91,545.357C3612.85,545.372 3612.78,545.387 3612.71,545.4C3605.1,546.897 3595.4,553.941 3572.63,568.867C3565.74,573.825 3554.21,574.793 3549.85,573.922L3546.89,572.896L3544.99,571.487L3543.23,568.775L3542.74,566.112L3542.74,531.176C3542.74,530.389 3542.87,529.607 3543.12,528.861C3546.01,520.341 3548.91,516.538 3553.72,511.802C3558.51,506.813 3562.08,502.127 3563.51,496.378C3565.81,487.153 3562.73,475.766 3553.34,457.681C3552.73,456.739 3551.46,456.126 3550.25,455.476C3547.3,453.892 3542.99,452.637 3542.64,452.536C3540.31,452.127 3538.28,450.582 3537.3,448.364C3528.34,428.248 3514.18,411.337 3501.69,393.189C3499.99,390.725 3500,387.472 3501.69,385.009C3507.89,376.001 3523.25,360.686 3526.94,357.713L3529.25,356.254L3532.19,355.638C3537.25,355.638 3547.3,352.719 3555.95,347.696C3561.27,344.606 3566.15,340.747 3568.49,335.902C3568.72,335.424 3569,334.973 3569.33,334.557C3570.87,332.608 3571.34,329.446 3571.68,326.457C3572.26,321.37 3571.95,316.477 3571.86,315.333ZM3396.6,463.021C3396.54,462.9 3396.48,462.778 3396.42,462.655L3370.59,404.694C3370.16,403.734 3369.95,402.693 3369.96,401.642C3370.7,354.964 3382.12,324.275 3409.1,300.479C3410.65,299.112 3412.71,298.475 3414.76,298.731C3416.82,298.987 3418.66,300.11 3419.83,301.816C3436.72,326.507 3455.71,349.632 3469.92,376.114L3469.93,376.122C3471.78,379.585 3473.79,382.983 3475.91,386.337C3477.39,388.689 3477.39,391.685 3475.91,394.037C3457.08,423.889 3435.07,451.236 3411.55,477.736C3409.79,479.714 3407.09,480.573 3404.51,479.973C3401.94,479.372 3399.9,477.41 3399.2,474.859C3398.53,472.433 3396.86,464.316 3396.6,463.021ZM3509.16,349.437C3504.33,354.376 3499.87,359.601 3495.63,365.079C3494.18,366.948 3491.92,367.99 3489.56,367.87C3487.2,367.749 3485.05,366.481 3483.8,364.475C3470.43,342.972 3456.08,323 3441.87,302.375C3440.2,299.943 3440.17,296.735 3441.81,294.278C3443.45,291.821 3446.43,290.612 3449.31,291.227C3453.56,292.131 3457.9,293.326 3462.58,294.86C3463.46,295.149 3464.28,295.603 3464.98,296.199C3470.72,301.032 3478.92,309.876 3492.84,323.567C3499.24,329.853 3504.53,334.975 3508.95,339.147C3510.36,340.475 3511.17,342.313 3511.21,344.248C3511.25,346.183 3510.51,348.053 3509.16,349.437ZM3421.08,508.764L3419.54,507.524L3418.46,506.014L3417.65,503.521L3417.69,501.364L3418.55,498.945C3418.74,498.599 3419.23,497.845 3420.05,496.772C3426.27,488.574 3460.31,447.743 3476.18,424.684C3478.55,421.185 3480.85,417.628 3483.12,414.046C3484.39,412.025 3486.59,410.77 3488.98,410.695C3491.37,410.62 3493.65,411.735 3495.05,413.671C3502.77,424.321 3510.31,435.1 3516.29,446.616C3517.29,448.534 3517.38,450.798 3516.52,452.785C3515.67,454.772 3513.97,456.272 3511.9,456.873C3490.02,463.202 3478.09,475.662 3467.97,486.144C3455.28,499.515 3445.97,508.908 3425.12,509.8C3423.7,509.86 3422.29,509.5 3421.08,508.764Z" style="fill:rgb(153,56,9);"/>
                    </g>
                </g>
            </g>
        </g>
    </g>
</svg>
